<svg class="mercer-wordmark" xmlns="http://www.w3.org/2000/svg" width="960" height="183.232"
     viewBox="0 188.375 960 183.232">
    <path d="M0 364.323h960v7.284H0z" class="underline"/>
    <g class="university">
        <path d="M734.845 343.132c1.766.22 3.532 0 4.856 0s2.87.22 4.857 0v-1.104c-2.87 0-3.09-1.104-3.09-4.194v-5.96l7.505-13.244c.883-1.546 1.324-2.208 3.752-2.65v-1.103c-1.545.22-2.87.44-3.752.44-1.104-.22-2.43-.22-4.194-.44v1.104c1.986.442 2.648.663 2.648 1.546 0 .222-.22.442-.44 1.104l-5.74 11.7-6.4-11.7c-.442-.22-.442-.662-.442-1.104 0-.883.883-1.324 2.207-1.545v-1.103c-1.765.22-3.53.44-4.855.44-1.324-.22-2.87-.22-4.855-.44v1.104c1.766.222 2.87.884 3.752 2.65l7.947 14.348v4.856c-.222 3.312-.884 4.194-3.092 4.194-.22 0-.22 0 0 0v1.104h-.663zM697.76 316.643v21.19c0 3.533-.883 4.195-3.752 4.195v1.104c2.428.22 4.194 0 5.298 0s2.648.22 5.298 0v-1.104c-3.532 0-3.532-1.104-3.753-4.194v-21.19h2.65c4.855.22 6.622.66 6.843 5.738h1.104v-3.09-4.194h-24.28v7.284h1.103c.22-4.635 1.986-5.74 6.843-5.74h2.648zM661.78 343.132c2.207.22 3.973 0 5.297 0 .884 0 2.65.22 4.856 0v-1.104h-.44c-2.43 0-2.65-1.104-2.65-4.194V321.5c0-3.754.222-4.857 3.09-4.857v-1.545c-1.985.22-3.53.44-4.855.44-1.545-.22-3.09-.22-5.298-.44v1.545c.22-.22.44-.22.44 0 2.21-.22 2.87.662 2.65 3.09v18.102c.22 3.312-.44 4.194-2.65 4.194h-.44v1.102zM628.228 343.132c2.207.44 4.636.883 6.843 1.104 6.182-.22 9.714-3.532 9.493-9.05.22-2.65-1.104-4.636-3.753-6.402-2.208-1.324-5.077-2.207-7.505-3.752-1.546-.883-2.43-2.43-2.208-4.194-.22-2.428 1.987-4.636 4.856-4.856 4.194.22 6.4 2.208 6.4 6.4h1.546c-.222-1.323-.222-2.206 0-2.647-.222-1.104-.222-2.43 0-4.194-2.43-.22-4.637-.882-7.506-1.103-5.077.22-8.608 3.753-8.388 7.946-.22 3.974 2.648 5.74 7.505 7.947 3.975 1.766 6.402 2.87 6.402 6.4 0 3.312-2.428 5.74-5.74 5.74-3.752-.22-6.4-2.65-6.842-6.4h-1.104v2.647s.002 1.986.002 4.415zM605.05 315.98c-1.325-.662-2.87-.883-4.856-.883-1.766 0-3.753.44-6.4.44-.663-.22-2.21-.22-4.195-.44v1.545c.22-.22.44-.22.44 0 2.207-.22 2.87.662 2.648 3.09v18.102c.222 3.312-.44 4.194-3.09 4.194.22 0 .22 0 0 0v1.104c2.207.22 3.753 0 5.298 0 1.104 0 2.648.22 4.856 0v-1.104h-.44c-2.43 0-2.65-1.104-2.65-4.194v-7.505c1.767.22 2.87.22 3.09.44.442 0 .884.883 1.546 2.207l3.753 5.74c1.987 3.53 3.532 4.855 6.844 4.855h2.648v-1.104c-3.973 0-5.076-1.987-6.843-5.298l-4.195-7.947c3.974-.662 5.96-2.87 5.74-6.843-.002-2.867-1.326-5.296-4.195-6.4l-1.546 1.987c1.325 1.104 1.987 2.87 1.987 5.076.222 3.974-2.207 5.96-6.4 5.74-.883.22-1.767 0-2.65 0V316.64h2.65c1.766 0 3.31.442 4.414 1.326l1.546-1.986zM551.41 343.132H571.496c.22-1.986.662-4.415 1.104-6.843h-.882c-1.104 4.855-3.09 5.297-9.05 5.297-3.974 0-4.416-.22-4.194-3.753v-8.388c1.986-.22 3.09-.22 3.09 0 3.532-.22 4.856.22 4.856 2.648h1.104c.22-1.324.22-2.648 0-3.753.22-.882.22-1.985 0-3.75h-1.104c.22.22.22.44 0 .44.22 2.428-1.545 2.648-5.298 2.648h-2.648v-10.596h2.207c6.402-.22 8.83.22 9.05 4.856h1.105c0-2.207-.22-4.193-.44-5.74.22-.22.22-.66 0-1.103-4.637.44-8.17.44-10.597.44-2.43-.22-5.077-.22-7.947-.44v1.545c.443-.22.443-.22.443 0 2.207-.22 2.87.662 2.648 3.09v18.102c.222 3.312-.44 4.194-3.09 4.194.222 0 .222 0 0 0v1.104h-.44zM518.078 344.235h1.104l10.596-23.84c.883-2.428 1.545-3.753 4.193-3.753v-1.545c-1.544.22-2.868.44-4.192.44-1.104-.22-2.65-.22-4.194-.44v1.545c1.766 0 2.428.22 2.207 1.104.222.662 0 1.324 0 2.207l-7.945 18.983-7.947-19.646c-.22-.44-.44-.883-.44-1.104.22-1.104 1.103-1.767 3.09-1.546v-1.545c-1.986.22-3.753.44-5.298.44-1.324-.22-2.87-.22-5.298-.44v1.545c2.65 0 3.532 1.325 4.856 3.753l9.27 23.842zM478.345 343.132c1.986.22 3.752 0 4.856 0 1.105 0 2.87.22 5.298 0v-1.104h-.44c-2.65 0-2.87-1.104-2.65-4.194V321.5c-.22-3.754 0-4.857 3.09-4.857v-1.545c-2.206.22-3.75.44-5.296.44-1.104-.22-2.87-.22-4.856-.44v1.545c0-.22.22-.22.44 0 1.987-.22 2.65.662 2.65 3.09v18.102c0 3.312-.663 4.194-3.09 4.194v1.102zM437.066 319.733l18.983 23.84h1.544c0-14.348.22-22.074.44-23.84 0-2.43.663-3.09 3.092-3.09v-1.546c-1.767.22-3.312.44-4.194.44-1.545-.22-2.87-.22-4.194-.44v1.545c1.546 0 2.43.44 2.65 2.208.22.883.44 5.52.44 13.686v5.298l-18.542-22.736c-1.104.22-2.208.22-2.65.44-1.103-.22-1.985-.22-3.752-.44v1.545c3.312-.22 3.974.22 4.194 2.65-.22 12.36-.44 18.982-.44 18.982-.222 2.65-.884 3.532-3.09 3.753v1.104c1.765.22 3.09 0 4.192 0 .884 0 2.43.22 4.194 0v-1.104c-1.986 0-2.648-.44-3.09-2.208 0-.883-.22-5.52-.44-13.686.442-2.206.442-4.194.662-6.4zM386.737 319.733v12.14c.22 7.727 4.635 11.92 11.037 12.142 4.193-.22 7.505-1.986 9.49-4.856 1.988-3.09 1.988-6.623 2.21-11.038v-7.284c0-3.09.22-4.194 2.647-4.194V315.1c-1.544.22-2.868.44-4.192.44-.884-.22-2.208-.22-3.753-.44v1.544c3.31-.22 3.31 2.208 3.09 9.492v5.298c.22 7.063-3.53 10.816-9.05 10.596-4.856.22-7.947-2.87-7.947-8.39V321.5c0-3.753.22-4.856 3.09-4.856V315.1c-1.987.22-3.752.44-4.856.44-1.545-.22-3.09-.22-5.298-.44v1.544c.22-.22.442-.22.442 0 2.65-.222 3.312.66 3.09 3.09z"/>
    </g>
    <g class="mercer">
        <path d="M739.26 203.403c-4.194-1.325-9.05-2.208-14.57-2.208-7.062.22-14.788 1.324-23.84 1.104-2.868.22-6.62 0-13.685-.442-1.546.44-2.65 4.415.44 4.856 7.285-.22 9.935 1.545 10.155 10.154v71.52c0 10.817-.44 11.7-9.492 12.804-3.312.44-3.312 3.752.44 3.752 7.506 0 10.597-.22 14.79 0 4.637-.22 9.272-.22 16.998 0 2.428 0 3.973-3.31 0-3.752-10.154-.44-10.596-4.636-10.596-15.894v-28.696c6.843.22 14.127.44 15.452 1.104 1.766.883 3.31 5.077 6.4 10.154l13.245 21.633c7.284 12.36 15.673 16.776 28.696 16.997 2.648-.22 1.545-.22 4.856-.442 2.427 0 1.765-3.53 0-3.09-11.26-.22-16.777-7.506-23.84-20.088l-16.998-28.034c9.49-2.87 19.866-11.258 20.087-25.385-.44-13.023-6.62-22.074-18.54-26.047l-3.09 6.843c6.4 3.973 9.712 11.037 9.712 20.75 0 13.907-8.167 21.19-23.398 21.19-3.532 0-9.05-.44-12.803-1.103v-44.148c3.974-.22 9.492-.44 11.7-.44 5.96 0 10.816 1.323 14.79 3.75l3.09-6.842z"/>
        <path d="M607.698 304.502c11.7-.22 20.97-.44 31.345-.44 8.61.22 23.4.44 42.383.44.22-.662 1.545 1.104 2.207-2.207.22-7.064 1.766-13.465 2.208-21.633.663-1.545-2.648-4.415-2.648 0-3.53 17.66-14.79 19.426-35.54 19.646-15.01-.22-16.555-1.546-16.334-13.687v-33.55h15.452c12.582 0 16.556 0 17.438 7.946.44 3.312 4.194 1.987 4.194 0-.22-5.518-.22-7.726 0-11.7-.22-3.09-.22-5.076 0-10.594-.662-3.974-4.194-2.208-4.194-.44.44 8.387-6.18 10.374-20.75 10.594-2.87-.22-8.83-.22-12.14-.44v-41.5h11.698c22.295 0 31.566 1.766 31.787 16.334.22 2.428 3.53 1.545 3.752 0 0-7.726-.44-10.154-.44-16.334v-5.298c-17.88.662-33.995.662-42.383.44-8.83.222-16.556 0-26.93-.44-1.987-.22-3.09 4.415 0 4.856 7.504-.22 10.153 2.87 10.153 11.037v67.77c.22 11.257-.44 15.672-10.154 15.893-3.53-.222-2.867 3.53-1.102 3.31z"/>
        <path d="M602.842 221.725v-4.856c0-3.533.662-8.39.44-11.7-11.478-2.87-23.618-5.52-39.73-5.74-32.01.222-54.083 24.062-54.083 55.186 0 30.462 24.5 50.108 53.418 49.887 16.776.22 35.32-7.505 44.59-18.1v-11.7c-11.48 15.673-25.385 25.165-41.94 25.386-24.943-.222-44.148-22.296-43.928-50.33-.22-27.372 18.764-45.693 41.94-45.473 18.322 0 26.93 4.856 36.644 17.438 1.544 2.65 2.87-.22 2.648 0z"/>
        <path d="M493.134 204.507c-4.636-1.987-10.596-3.31-17.218-3.31-6.843.22-14.568 1.323-23.398 1.103-3.31.22-6.843 0-14.348-.44-1.324.44-2.43 4.414.44 4.855 7.285-.22 10.155 1.545 10.155 10.154v71.52c0 10.816-.44 11.7-9.05 12.803-3.533.44-3.754 3.752 0 3.752 7.504 0 10.595-.22 15.45 0 4.194-.22 9.05-.22 16.336 0 2.43 0 4.194-3.31 0-3.752-9.933-.44-10.374-4.636-10.595-15.894v-28.697c6.843.22 14.127.44 15.45 1.104 1.988.883 3.533 5.077 6.402 10.154l13.245 21.634c7.284 12.36 15.893 16.776 28.696 16.997 2.648-.22 1.545-.22 4.856-.44 2.648 0 1.766-3.532 0-3.09-11.258-.222-16.776-7.507-23.4-20.09l-17.437-28.033c9.492-2.87 20.088-11.258 20.088-25.385-.22-11.922-5.738-20.53-15.67-24.945l-3.974 7.063c5.3 4.194 7.947 10.816 7.727 19.425.22 13.907-7.947 21.19-23.398 21.19-3.533 0-9.052-.44-12.804-1.103v-44.148c4.193-.22 9.49-.44 11.7-.44 7.062 0 12.58 1.765 16.554 5.076l4.194-7.063z"/>
        <path d="M358.703 304.502c11.7-.22 21.19-.44 31.345-.44 8.83.22 23.62.44 42.382.44.22-.662 1.545 1.104 2.207-2.207.44-7.064 1.987-13.465 2.65-21.633.22-1.545-3.092-4.415-3.092 0-3.532 17.66-14.568 19.426-34.877 19.646-15.452-.22-16.997-1.546-16.997-13.687v-33.55h15.453c12.582 0 16.776 0 17.438 7.946.663 3.312 4.194 1.987 4.194 0-.22-5.518 0-7.726 0-11.7 0-3.09-.22-5.076 0-10.594-.662-3.974-4.193-2.208-4.193-.44.442 8.387-5.96 10.374-20.75 10.594-2.87-.22-8.83-.22-12.14-.44v-41.5h11.7c22.515 0 31.786 1.766 31.786 16.334.22 2.428 3.53 1.545 3.752 0 .22-7.726-.44-10.154-.44-16.334 0-1.104.22-4.194 0-5.298-17.66.662-33.774.662-42.383.44-8.83.222-16.335 0-26.49-.44-2.427-.22-3.53 4.415 0 4.856 7.064-.22 9.934 2.87 10.155 11.037v67.77c-.22 11.257-.883 15.672-10.596 15.893-3.308-.222-2.867 3.53-1.1 3.31z"/>
        <path d="M178.58 343.132h21.19c3.973 0 9.712 0 21.633.44 4.635 0 2.428-5.076 0-4.855-9.934-.22-15.673-7.063-15.894-20.75l.44-102.202 63.132 127.588c.662 1.324 2.208 1.104 2.208 1.104h1.545c1.325 0 1.987-1.986 2.208-2.207l58.717-141.495 1.545 120.303c0 13.244-3.974 17.88-15.452 18.1-3.312 0-3.09 4.195 0 4.195 12.14-.44 15.893-.662 22.294-.44 6.4-.222 17.218 0 29.138.44 3.753 0 5.077-5.077 0-5.298-13.023.44-16.997-9.934-16.997-28.034l-2.207-90.06c.222-1.546.222-2.87 0-4.195.222-16.556 3.09-21.412 18.984-24.282 2.428 1.104 3.312-3.09 0-3.09-7.284.44-13.906.662-20.75.44-5.298 0-10.595-.44-17.438-.44-1.987 0-2.428 1.987-2.65 2.208l-54.3 128.693-62.912-129.354c0 .22-.22-1.767-2.65-1.546-8.608.44-11.92.663-13.685.44-6.182 0-10.817-.22-18.102-.44-3.31 0-4.194 5.077 0 5.298 15.452.22 17.88 6.18 18.1 22.295-.22.44 0 33.332 0 57.172-.44 24.722-.66 44.367-2.207 51.432-2.207 10.153-5.297 14.348-15.892 14.348-2.427-.444-3.53 4.633 0 4.192z"/>
    </g>
</svg>