<svg xmlns="http://www.w3.org/2000/svg" width="508.021" height="512"><path d="M253.74 0c.542 0 1.085.678 1.899 1.9.678 1.085 57.803 69.608 127.005 152.243 69.201 82.634 125.648 150.614 125.376 151.021-.135.407-55.225 45.592-122.391 100.274-67.166 54.683-124.291 101.224-126.87 103.395-4.477 3.664-4.748 3.8-6.377 2.171-.95-.95-58.21-47.762-127.276-104.073C56.04 350.621-.27 304.215.001 303.536c.271-.678 56.99-68.387 126.326-150.615C195.664 70.694 252.382 2.714 252.654 1.628 252.925.543 253.332 0 253.739 0z" fill="#00bef2"/><path d="M244.377 430.54c-7.87-2.849-17.368-10.99-21.303-18.589-4.885-9.362-4.478-24.016.95-35.686 4.206-8.684 4.206-8.955 1.492-10.99-1.493-1.086-19.54-11.127-39.893-22.118-20.353-10.99-38.128-20.624-39.35-21.303-1.628-.95-4.341 0-9.226 3.12-15.876 10.042-32.43 8.956-45.456-3.12-9.363-8.684-12.076-14.79-12.076-27.273 0-12.077 2.442-18.318 10.176-26.053 10.448-10.448 24.424-13.976 37.858-9.498 7.327 2.443 7.462 2.443 12.076-1.085 5.427-4.071 48.984-43.828 70.015-63.774l14.519-13.84-4.342-9.092c-8.82-18.318-4.342-38.67 11.126-50.883 8.413-6.649 14.655-8.684 26.731-8.684 28.223 0 47.898 29.58 37.315 56.04-2.85 7.327-2.85 7.462-.136 11.94 2.307 3.935 41.52 51.29 62.281 75.443 3.664 4.206 7.734 7.599 9.091 7.599 1.357 0 5.97-1.357 10.313-2.985 20.217-8.006 41.52.95 49.933 21.031 5.428 12.89.679 30.259-10.855 40.707-8.141 7.327-14.112 9.634-24.967 9.634-7.598 0-10.448-.814-18.453-5.156-5.97-3.257-10.584-4.885-12.484-4.342-3.256.814-53.325 35.143-64.452 44.099-6.784 5.563-7.327 7.598-3.8 15.875 3.393 8.142 2.986 20.896-.813 28.902-4.207 8.82-14.655 17.64-23.746 20.353-9.227 2.578-14.79 2.578-22.524-.271zm2.306-149.528v-77.343l-4.342-5.97c-2.442-3.257-4.749-5.97-5.156-5.97-1.764 0-89.419 79.649-89.419 81.277 0 .407 1.357 4.478 2.985 8.82 1.629 4.478 2.85 10.855 2.714 14.519-.136 3.663-.136 7.734-.136 9.09.136 3.122 29.445 21.847 73.408 47.22 12.076 7.056 16.283 8.82 17.775 7.599 1.764-1.493 2.171-16.554 2.171-79.242zm37.18 68.387c58.074-36.5 68.93-43.828 69.608-46.541.407-1.629.95-8.006 1.085-14.383l.407-11.398-29.58-35.144c-31.751-37.586-43.42-50.34-46.134-50.34-.95 0-5.7 2.714-10.584 5.97l-8.955 5.97.407 77.207c.407 69.202.95 80.87 3.528 80.87.27.137 9.498-5.427 20.217-12.211z" fill="#fff" stroke="#fff" stroke-width="1.6771160399999998" stroke-linecap="round" stroke-linejoin="round"/></svg>