<svg width="890" height="890" viewBox="0 0 890 890" version="1.1" xmlns="http://www.w3.org/2000/svg" xmlns:xlink="http://www.w3.org/1999/xlink">
    <g id="Canvas" fill="none">
        <g id="down">
            <g id="Group">
                <g id="Vector">
                    <path d="M 445.178 0.000420073C 533.058 0.21042 620.548 27.0094 693.068 76.0164C 789.978 141.503 859.618 246.134 881.468 361.969C 898.868 454.21 886.288 551.734 845.848 636.262C 799.248 733.697 715.828 813.364 615.648 855.224C 508.208 900.114 383.138 900.744 274.518 855.744C 174.578 814.344 90.7983 735.268 43.6483 637.48C -5.6017 535.319 -13.7117 413.709 22.0583 305.369C 52.9583 211.767 116.178 128.978 198.628 74.1544C 270.438 26.3974 356.868 0.341427 443.028 0.00142715C 443.738 0.000427153 444.458 -0.000579927 445.178 0.000420073ZM 443.868 83.3334C 353.298 83.5494 264.318 118.778 198.348 180.193C 125.638 247.892 82.7584 345.682 83.0784 445.883C 83.3184 521.379 107.938 596.523 152.308 657.342C 205.408 730.131 286.118 782.224 375.498 799.514C 465.288 816.884 561.538 798.764 638.678 749.444C 710.048 703.823 764.678 632.583 789.748 551.597C 817.648 461.5 808.618 360.39 764.288 276.413C 713.658 180.511 618.668 109.228 510.098 89.2844C 488.258 85.2734 466.038 83.3154 443.868 83.3334ZM 444.708 570.484L 662.298 352.9C 666.478 349.303 667.368 348.124 672.288 345.525C 685.168 338.716 701.558 339.311 713.928 347.083C 718.638 350.042 719.438 351.285 723.338 355.184C 724.568 356.855 725.808 358.525 727.038 360.195C 729.618 365.071 730.568 366.207 732.008 371.579C 734.698 381.643 733.458 392.631 728.598 401.833C 725.998 406.75 724.818 407.646 721.218 411.826L 479.458 653.588C 478.638 654.796 477.748 655.963 476.788 657.08C 466.208 669.376 448.248 674.191 432.598 669.482C 426.998 667.907 421.708 665.187 417.208 661.316C 414.988 659.401 413.008 657.246 411.278 654.906L 168.368 411.994C 164.778 407.814 163.588 406.918 160.998 402.001C 154.188 389.118 154.778 372.733 162.558 360.363C 165.508 355.654 166.758 354.849 170.658 350.949C 172.328 349.717 173.998 348.484 175.668 347.251C 180.538 344.674 181.678 343.724 187.048 342.285C 197.108 339.588 208.098 340.83 217.298 345.693C 222.218 348.292 223.118 349.471 227.298 353.069L 444.708 570.484Z" fill="black"/>
                </g>
            </g>
        </g>
    </g>
</svg>
