<svg xmlns="http://www.w3.org/2000/svg" width="511.943" height="512"><path d="M256.335 0c50.601.12 100.978 15.552 142.735 43.77 55.801 37.708 95.9 97.955 108.481 164.653 10.02 53.112 2.776 109.267-20.51 157.938-26.832 56.103-74.865 101.976-132.55 126.079-61.863 25.848-133.88 26.21-196.423.3C100.523 468.9 52.282 423.368 25.133 367.061-3.225 308.238-7.895 238.215 12.7 175.832c17.793-53.896 54.195-101.566 101.67-133.134C155.719 15.199 205.486.196 255.097.001h1.238zm-.755 47.983c-52.15.125-103.385 20.41-141.37 55.773-41.867 38.98-66.558 95.288-66.373 152.984.138 43.471 14.314 86.74 39.862 121.759 30.576 41.912 77.049 71.907 128.514 81.863 51.701 10.002 107.122-.432 151.54-28.83 41.094-26.27 72.55-67.29 86.986-113.921 16.065-51.878 10.865-110.098-14.66-158.452-29.153-55.22-83.848-96.265-146.363-107.75-12.576-2.308-25.37-3.436-38.136-3.425zm.484 280.503l125.289-125.285c2.407-2.072 2.92-2.75 5.752-4.247 7.416-3.92 16.854-3.578 23.977.897 2.712 1.704 3.172 2.42 5.418 4.665.708.962 1.422 1.924 2.13 2.885 1.486 2.808 2.033 3.462 2.862 6.555 1.549 5.795.835 12.122-1.963 17.42-1.497 2.832-2.177 3.347-4.25 5.754L276.073 376.337a22.294 22.294 0 0 1-1.537 2.011c-6.092 7.08-16.434 9.853-25.445 7.141-3.224-.907-6.27-2.473-8.861-4.702a22.645 22.645 0 0 1-3.415-3.69L96.947 237.226c-2.067-2.407-2.752-2.923-4.244-5.754-3.921-7.418-3.581-16.852.898-23.975 1.7-2.712 2.419-3.175 4.664-5.42l2.885-2.13c2.804-1.484 3.46-2.03 6.553-2.86 5.792-1.552 12.12-.837 17.418 1.963 2.833 1.496 3.351 2.175 5.758 4.247z"/></svg>